<svg width="160" height="188" viewBox="0 0 160 188" fill="none" xmlns="http://www.w3.org/2000/svg">
<path fill-rule="evenodd" clip-rule="evenodd" d="M130.047 58.3356C126.304 61.1829 122.26 63.6595 117.965 65.6927C114.752 58.1806 110.602 51.1647 105.669 44.7804C108.759 45.6573 111.745 46.7757 114.615 48.1042L111.9 51.6479L118.286 53.3524L120.82 51.4257C124.115 53.4411 127.205 55.7542 130.047 58.3356ZM149.932 100.582H125.604C125.311 90.167 123.352 80.1679 119.987 70.8359C124.995 68.5038 129.689 65.6198 134.004 62.2733C143.359 72.4678 149.275 85.8434 149.932 100.582ZM133.162 145.285C129.142 141.72 124.687 138.631 119.884 136.112C123.313 126.697 125.308 116.597 125.604 106.074H149.932C149.255 121.251 143.003 134.984 133.162 145.285ZM105.659 161.879C110.533 155.574 114.644 148.655 117.841 141.247C121.919 143.437 125.717 146.078 129.172 149.098C122.469 154.957 114.471 159.38 105.659 161.879ZM91.6458 164.136V134.058C99.1599 134.39 106.321 136.073 112.89 138.871C109.044 147.857 103.717 156.219 97.0366 163.66C95.2624 163.897 93.4654 164.055 91.6458 164.136ZM91.6458 106.074H120.086C119.803 115.641 118.04 124.954 114.901 133.751C107.709 130.71 99.8689 128.895 91.6458 128.562V106.074ZM91.6458 77.6416C99.8162 77.3409 107.644 75.7138 114.923 72.9677C118.047 81.7465 119.803 91.0381 120.086 100.582H91.6458V77.6416ZM91.6458 42.5206C93.4624 42.6008 95.2581 42.76 97.0305 42.9949C103.725 50.4508 109.063 58.8294 112.911 67.8361C106.255 70.3489 99.1036 71.8479 91.6458 72.1456V42.5206ZM86.1326 72.1456C78.6749 71.8479 71.5233 70.3483 64.867 67.8361C68.7149 58.8294 74.053 50.4508 80.7473 42.9953C82.5191 42.76 84.3154 42.6008 86.1326 42.5206V72.1456ZM86.1326 100.582H57.6915C57.9744 91.0381 59.7309 81.7465 62.8558 72.9677C70.1335 75.7138 77.9622 77.3409 86.1326 77.6416V100.582ZM86.1326 128.562C77.9089 128.895 70.0692 130.71 62.8766 133.751C59.7382 124.954 57.9756 115.641 57.6915 106.074H86.1326V128.562ZM86.1326 164.136C84.3136 164.056 82.5155 163.896 80.7412 163.66C74.0604 156.219 68.7339 147.857 64.8884 138.871C71.4578 136.073 78.6185 134.39 86.1326 134.058V164.136ZM48.6065 149.098C52.0614 146.078 55.8591 143.437 59.9378 141.247C63.1337 148.655 67.2456 155.574 72.1196 161.879C63.307 159.38 55.3087 154.957 48.6065 149.098ZM27.846 106.074H52.174C52.4709 116.597 54.465 126.697 57.8942 136.112C53.0905 138.631 48.6365 141.72 44.6165 145.285C34.7753 134.984 28.5231 121.251 27.846 106.074ZM43.7741 62.2733C48.0891 65.6198 52.7838 68.5038 57.7913 70.8359C54.4264 80.1679 52.4679 90.167 52.174 100.582H27.846C28.5035 85.8434 34.4196 72.4678 43.7741 62.2733ZM72.1098 44.7804C67.1764 51.1647 63.026 58.1806 59.8136 65.6921C55.5175 63.6595 51.4748 61.1829 47.731 58.3356C54.6052 52.0917 62.9146 47.3904 72.1098 44.7804ZM148.598 30.1732L143.537 28.8223L132.179 1.70452L125.793 0L129.064 25.2852L112.787 21.4141L109.146 12.5167L103.329 10.9641L104.773 20.9637C98.4282 19.4566 91.8081 18.6564 84.9987 18.6564C38.0551 18.6564 0 56.5651 0 103.328C0 150.091 38.0551 188 84.9987 188C88.5259 188 92.0022 187.783 95.416 187.367C94.1126 187.427 92.8017 187.461 91.4824 187.461C45.5538 187.461 8.32098 150.372 8.32098 104.62C8.32098 58.8679 45.5538 21.779 91.4824 21.779C95.6817 21.779 99.8058 22.0959 103.838 22.6949L104.291 22.9324L97.9488 30.9641L103.766 32.5167L111.385 26.6249L127.425 31.3798L118.035 43.6385C109.231 39.3645 99.3423 36.9639 88.8895 36.9639C52.095 36.9639 22.2678 66.6765 22.2678 103.328C22.2678 139.981 52.095 169.692 88.8895 169.692C125.683 169.692 155.51 139.981 155.51 103.328C155.51 80.1446 143.574 59.7415 125.492 47.874L141.734 35.5251L146.795 36.8763C151.668 38.1767 159.122 39.8219 159.937 36.7919C160.752 33.7619 153.471 31.4735 148.598 30.1732Z" fill="#0C93F5"/>
</svg>
